<?xml version="1.0" encoding="UTF-8"?>
<svg version="1.1" xmlns="http://www.w3.org/2000/svg" width="512" height="512">
<path d="M0 0 C0.6888105 -0.04318837 1.37762099 -0.08637675 2.08730453 -0.13087386 C4.39134398 -0.27275532 6.6957055 -0.40789083 9.00022888 -0.54167175 C9.80941206 -0.58953386 10.61859524 -0.63739597 11.45229912 -0.68670845 C27.616082 -1.63287579 43.78728587 -2.21424715 59.97178745 -2.66685963 C70.24500592 -2.96178591 80.48856741 -3.36641067 90.74339294 -4.05729675 C163.78401169 -8.88145047 163.78401169 -8.88145047 189.96238708 13.87019348 C204.00167094 26.41686049 216.17154417 40.8991442 227.50996441 55.88786209 C232.9310768 63.05077044 238.558621 69.24277879 245.44895935 74.99421692 C312.3251646 131.94243585 312.3251646 131.94243585 314.79881287 159.96931458 C315.8794365 175.50191496 313.6594903 191.445478 310.04490662 206.52400208 C310.97649597 206.50305481 311.90808533 206.48210754 312.86790466 206.46052551 C316.38867974 206.39156345 319.90871747 206.34182696 323.42991638 206.30427551 C324.94175173 206.28439771 326.45351271 206.25728535 327.96507263 206.22224426 C343.70903524 205.86692084 357.85090693 208.69059625 369.79490662 219.77400208 C379.05364981 229.70968168 382.51187011 241.03567549 382.44895935 254.38288879 C382.45925423 255.93624435 382.45925423 255.93624435 382.46975708 257.52098083 C382.48793103 260.91535994 382.48420066 264.30927265 382.47850037 267.70368958 C382.48306687 270.08203785 382.48837383 272.4603848 382.49438477 274.83872986 C382.50329761 279.81313959 382.5009137 284.78738863 382.49095154 289.76179504 C382.47946828 296.11213756 382.49967356 302.46192347 382.52886868 308.81219292 C382.54728332 313.72123188 382.54692762 318.63013878 382.54123116 323.53920364 C382.54107857 325.87938848 382.54707093 328.21958263 382.55952263 330.55973434 C382.64162188 348.51831312 381.76737614 361.99075981 368.97850037 375.74665833 C359.65777104 384.66721323 347.8701851 388.91384977 335.04490662 388.71931458 C333.96318176 388.71506973 333.96318176 388.71506973 332.85960388 388.71073914 C330.58785915 388.69966904 328.31652934 388.67459102 326.04490662 388.64900208 C324.49152695 388.63895518 322.93814102 388.62983234 321.38475037 388.62165833 C317.60464599 388.59977319 313.8248463 388.56533722 310.04490662 388.52400208 C310.05378906 389.36543762 310.06267151 390.20687317 310.07182312 391.07380676 C310.15257811 399.07434818 310.2131765 407.07474916 310.2521553 415.0756073 C310.27286964 419.18716577 310.3008841 423.29838243 310.34666443 427.40974426 C310.39070868 431.39093799 310.41416449 435.3718068 310.42441559 439.35322571 C310.43170358 440.85840458 310.44592856 442.36356936 310.46782684 443.86860657 C310.74371252 463.64947743 305.82707806 480.73277879 292.04490662 495.52400208 C279.61966072 507.29860165 264.71879894 513.00964543 247.73138428 512.91841125 C246.64704973 512.92450236 245.56271518 512.93059346 244.44552201 512.93686914 C240.84092736 512.95341214 237.23668934 512.94873565 233.63206482 512.94392395 C231.03574255 512.95126939 228.43942355 512.959857 225.84310913 512.96958923 C219.53927773 512.99056679 213.23553845 512.99518847 206.93167625 512.99340135 C201.80239269 512.99208963 196.67313767 512.99591871 191.54385948 513.00332642 C190.06187048 513.0054258 188.57988147 513.0075234 187.09789246 513.00961924 C185.9911578 513.01118453 185.9911578 513.01118453 184.86206486 513.01278144 C170.93051793 513.0316535 156.99902373 513.0306432 143.06746932 513.02381212 C130.35277066 513.01824117 117.63827376 513.0390483 104.92362223 513.07217258 C91.83763582 513.10599697 78.75174581 513.12106691 65.66571492 513.11645555 C58.33123034 513.11421939 50.99693211 513.11932805 43.66248512 513.14434814 C36.76024662 513.16769511 29.85843272 513.16467271 22.95618629 513.14442062 C20.43279187 513.14102407 17.90936886 513.14604067 15.38601303 513.16040421 C-3.13909252 513.25852015 -18.66637801 512.13074612 -33.95509338 500.52400208 C-34.73239807 499.95165833 -35.50970276 499.37931458 -36.31056213 498.78962708 C-48.38997582 489.05956579 -55.95079946 473.74760402 -57.95509338 458.52400208 C-58.21614931 453.09239624 -58.18910513 447.67052407 -58.15040588 442.23493958 C-58.14666812 440.67981652 -58.14382476 439.12469109 -58.14183044 437.56956482 C-58.13425402 433.50898041 -58.11465823 429.44854281 -58.09242249 425.38801575 C-58.07183377 421.2315418 -58.06280108 417.07504375 -58.05274963 412.91853333 C-58.03140567 404.78695611 -57.99734363 396.65549744 -57.95509338 388.52400208 C-58.88668274 388.54494934 -59.81827209 388.56589661 -60.77809143 388.58747864 C-64.29886651 388.6564407 -67.81890423 388.70617719 -71.34010315 388.74372864 C-72.8519385 388.76360644 -74.36369948 388.7907188 -75.8752594 388.82575989 C-91.61922201 389.18108331 -105.7610937 386.3574079 -117.70509338 375.27400208 C-126.96383658 365.33832247 -130.42205687 354.01232866 -130.35914612 340.66511536 C-130.36600937 339.62954498 -130.37287262 338.59397461 -130.37994385 337.52702332 C-130.3981178 334.13264421 -130.39438743 330.7387315 -130.38868713 327.34431458 C-130.39325364 324.9659663 -130.3985606 322.58761935 -130.40457153 320.20927429 C-130.41348438 315.23486456 -130.41110047 310.26061552 -130.40113831 305.28620911 C-130.38965505 298.93586659 -130.40986033 292.58608068 -130.43905544 286.23581123 C-130.45747009 281.32677227 -130.45711439 276.41786537 -130.45141792 271.50880051 C-130.45126533 269.16861567 -130.4572577 266.82842152 -130.4697094 264.48826981 C-130.55180865 246.52969103 -129.6775629 233.05724434 -116.88868713 219.30134583 C-107.56795781 210.38079093 -95.78037187 206.13415438 -82.95509338 206.32868958 C-82.23394348 206.33151947 -81.51279358 206.33434937 -80.76979065 206.33726501 C-78.49804592 206.34833511 -76.22671611 206.37341313 -73.95509338 206.39900208 C-72.40171372 206.40904897 -70.84832778 206.41817181 -69.29493713 206.42634583 C-65.51483276 206.44823097 -61.73503307 206.48266693 -57.95509338 206.52400208 C-57.95878056 205.75538345 -57.96246773 204.98676483 -57.96626663 204.19485474 C-58.05488645 185.42927073 -58.1209331 166.66372889 -58.16234207 147.89797974 C-58.18290317 138.82272288 -58.21089921 129.74760633 -58.2568512 120.67243958 C-58.2969178 112.75576774 -58.322573 104.8391976 -58.33144736 96.92242718 C-58.33662882 92.73664433 -58.34866975 88.55115223 -58.37801361 84.36546326 C-58.40549743 80.41245048 -58.41347316 76.45984364 -58.40752411 72.50674438 C-58.40860983 71.06859112 -58.41636525 69.6304219 -58.43191528 68.19235229 C-58.62622641 49.26769902 -53.91050081 31.82391829 -40.52540588 17.87165833 C-28.93602854 7.28622401 -15.70870684 0.98340805 0 0 Z " fill="#C4D7F8" transform="translate(129.95509338378906,-0.5240020751953125)"/>
<path d="M0 0 C1.03321574 -0.06478256 1.03321574 -0.06478256 2.08730453 -0.13087386 C4.39134398 -0.27275532 6.6957055 -0.40789083 9.00022888 -0.54167175 C9.80941206 -0.58953386 10.61859524 -0.63739597 11.45229912 -0.68670845 C27.616082 -1.63287579 43.78728587 -2.21424715 59.97178745 -2.66685963 C70.24500592 -2.96178591 80.48856741 -3.36641067 90.74339294 -4.05729675 C163.78401169 -8.88145047 163.78401169 -8.88145047 189.96238708 13.87019348 C204.00169972 26.41688621 216.17138316 40.89920047 227.50996441 55.88782722 C232.93036409 63.04967568 238.55025707 69.23838049 245.44895935 74.97834778 C252.70369281 81.12440824 259.78080955 87.44014231 266.78272915 93.87254047 C271.72416427 98.39631847 276.73837138 102.77499153 281.94515991 106.9916687 C294.67939232 117.90480483 299.54508433 125.61684698 310.04490662 140.52400208 C310.04490662 162.63400208 310.04490662 184.74400208 310.04490662 207.52400208 C188.60490662 207.52400208 67.16490662 207.52400208 -57.95509338 207.52400208 C-57.95509338 36.03989191 -57.95509338 36.03989191 -40.52540588 17.87165833 C-28.93602854 7.28622401 -15.70870684 0.98340805 0 0 Z " fill="#021336" transform="translate(129.95509338378906,-0.5240020751953125)"/>
<path d="M0 0 C121.44 0 242.88 0 368 0 C368 87.68214286 368 87.68214286 350 107 C337.5747541 118.77459958 322.67389232 124.48564335 305.68647766 124.39440918 C304.60214311 124.40050028 303.51780856 124.40659139 302.40061539 124.41286707 C298.79602075 124.42941006 295.19178273 124.42473358 291.5871582 124.41992188 C288.99083594 124.42726732 286.39451693 124.43585493 283.79820251 124.44558716 C277.49437111 124.46656471 271.19063183 124.47118639 264.88676963 124.46939927 C259.75748607 124.46808755 254.62823106 124.47191663 249.49895287 124.47932434 C248.01696386 124.48142373 246.53497486 124.48352133 245.05298585 124.48561716 C244.31516274 124.48666069 243.57733963 124.48770422 242.81715824 124.48877937 C228.88561131 124.50765142 214.95411712 124.50664112 201.0225627 124.49981004 C188.30786404 124.49423909 175.59336715 124.51504623 162.87871561 124.54817051 C149.7927292 124.58199489 136.7068392 124.59706484 123.6208083 124.59245348 C116.28632372 124.59021731 108.9520255 124.59532598 101.61757851 124.62034607 C94.71534 124.64369303 87.81352611 124.64067064 80.91127968 124.62041855 C78.38788525 124.61702199 75.86446225 124.6220386 73.34110641 124.63640213 C54.81600086 124.73451808 39.28871538 123.60674405 24 112 C22.83404297 111.14148438 22.83404297 111.14148438 21.64453125 110.265625 C9.07706314 100.1424321 3.08579771 85.42898853 0 70 C0 46.9 0 23.8 0 0 Z " fill="#011235" transform="translate(72,388)"/>
<path d="M0 0 C3.93400023 1.82355936 6.64580217 4.37003865 9.66723633 7.42431641 C10.22228348 7.97746521 10.77733063 8.53061401 11.34919739 9.1005249 C13.18172973 10.92935522 15.00696313 12.76528559 16.83203125 14.6015625 C18.10955401 15.88027831 19.3874477 17.15862364 20.66569519 18.43661499 C23.34607678 21.11856087 26.02306668 23.80383165 28.69750977 26.49169922 C32.10841748 29.91951919 35.5257923 33.34079813 38.94554615 36.75979042 C41.58741677 39.40193455 44.22666055 42.0466897 46.86505699 44.6923027 C48.12303486 45.95344161 49.38160065 47.21399437 50.64078712 48.47392654 C52.41123497 50.24656987 54.17833632 52.02248531 55.94458008 53.79931641 C56.4554718 54.30975494 56.96636353 54.82019348 57.49273682 55.34609985 C60.24202813 58.11923049 62.862252 60.9636129 65.41571045 63.91868591 C68.91522639 67.9539806 72.61327092 71.74114598 76.40405273 75.50170898 C77.107332 76.20352798 77.81061127 76.90534698 78.53520203 77.62843323 C80.04708628 79.13654035 81.56012361 80.64349227 83.07421684 82.14938164 C85.46733092 84.52964982 87.8572346 86.9131004 90.24635315 89.29737854 C95.30725791 94.34690925 100.37210536 99.39247382 105.4375 104.4375 C111.33262101 110.30904108 117.22612632 116.18218521 123.11546516 122.05952644 C125.47562374 124.41318016 127.83876029 126.76381636 130.20201111 129.11436462 C131.63538987 130.54411417 133.06863027 131.97400244 134.50170898 133.40405273 C135.16396484 134.06114227 135.8262207 134.71823181 136.50854492 135.39523315 C138.02478925 136.91129805 139.51553731 138.45280249 141 140 C141 140.33 141 140.66 141 141 C125.2659523 141.11705132 109.53202309 141.20509435 93.79764748 141.25906086 C86.49108915 141.28478991 79.18480211 141.319838 71.87841797 141.37719727 C65.50657853 141.42719577 59.13493566 141.4593295 52.76290548 141.47044247 C49.39209032 141.47693373 46.02183728 141.4920766 42.65120316 141.52865028 C38.87862423 141.56508386 35.10719994 141.56993903 31.33447266 141.56762695 C29.67721664 141.59459152 29.67721664 141.59459152 27.98648071 141.62210083 C19.9147412 141.56876902 13.41194105 139.74165454 7.16366005 134.44264698 C0.04501589 126.9172584 -0.43854815 117.86110991 -0.34057617 107.96264648 C-0.34101425 106.79090378 -0.34145233 105.61916107 -0.34190369 104.41191101 C-0.33982488 100.56479846 -0.31653597 96.71812955 -0.29296875 92.87109375 C-0.28736957 90.19351972 -0.2829533 87.51596981 -0.28010559 84.83839417 C-0.27081344 78.52749298 -0.24623845 72.21674932 -0.21605712 65.90591723 C-0.18242447 58.71602482 -0.16600492 51.52612454 -0.15097082 44.33617294 C-0.11968602 29.55736839 -0.06698116 14.77868695 0 0 Z " fill="#C4D7F8" transform="translate(299,0)"/>
<path d="M0 0 C6.27 0 12.54 0 19 0 C20.67150801 3.28928897 22.33738311 6.58122113 24 9.875 C24.47695313 10.81214844 24.95390625 11.74929688 25.4453125 12.71484375 C25.89648438 13.61074219 26.34765625 14.50664062 26.8125 15.4296875 C27.23144531 16.25710449 27.65039062 17.08452148 28.08203125 17.93701172 C29 20 29 20 29 22 C29.66 22 30.32 22 31 22 C31.24492187 21.18273437 31.48984375 20.36546875 31.7421875 19.5234375 C33.22560439 15.36802745 35.11839679 11.54673963 37.125 7.625 C39.043125 3.850625 39.043125 3.850625 41 0 C47.27 0 53.54 0 60 0 C51.6735046 17.86167561 51.6735046 17.86167561 48.140625 24.24609375 C47.67897949 25.08551514 47.21733398 25.92493652 46.74169922 26.78979492 C45.84768903 28.39910909 44.9383808 30.00004326 44.01220703 31.59106445 C43.60341309 32.32929443 43.19461914 33.06752441 42.7734375 33.828125 C42.40653809 34.4665332 42.03963867 35.10494141 41.66162109 35.76269531 C39.72918808 42.29731381 43.25813162 48.1092905 46.25390625 53.70703125 C46.67421616 54.51363693 47.09452606 55.32024261 47.52757263 56.15129089 C48.86284169 58.71025299 50.21181998 61.26164361 51.5625 63.8125 C52.91450779 66.38229921 54.2635315 68.95358835 55.60813904 71.52726746 C56.44354975 73.12461014 57.28364047 74.71951547 58.12879944 76.3117218 C61 81.77770907 61 81.77770907 61 84 C55.06 84 49.12 84 43 84 C40.99491947 80.37772653 38.99574934 76.75240928 37 73.125 C36.42765625 72.09246094 35.8553125 71.05992187 35.265625 69.99609375 C34.72421875 69.00996094 34.1828125 68.02382813 33.625 67.0078125 C33.12226563 66.09660645 32.61953125 65.18540039 32.1015625 64.24658203 C31 62 31 62 31 60 C30.34 60 29.68 60 29 60 C28.77570313 60.79664063 28.55140625 61.59328125 28.3203125 62.4140625 C26.62416353 67.02076296 24.29929908 71.11719741 21.875 75.375 C21.40707031 76.20644531 20.93914062 77.03789062 20.45703125 77.89453125 C19.30932031 79.93230373 18.15529184 81.96651584 17 84 C11.06 84 5.12 84 -1 84 C1.24782942 77.25651174 1.24782942 77.25651174 2.89526367 74.21704102 C3.25871384 73.53936172 3.622164 72.86168243 3.99662781 72.16346741 C4.38317032 71.45081223 4.76971283 70.73815704 5.16796875 70.00390625 C5.98715335 68.46072424 6.80548721 66.91709037 7.62304688 65.37304688 C8.90524189 62.96134009 10.19262765 60.55304616 11.49487305 58.15209961 C12.75686988 55.81956323 13.9952278 53.47569608 15.23046875 51.12890625 C15.62308395 50.4182753 16.01569916 49.70764435 16.42021179 48.97547913 C18.87761573 44.24918606 19.48614092 41.32001864 18 36 C16.9004219 33.30701865 15.59534459 30.76389601 14.21875 28.203125 C13.84520386 27.48767517 13.47165771 26.77222534 13.08679199 26.03509521 C11.9008948 23.76814281 10.70107283 21.50894269 9.5 19.25 C8.30183245 16.97535756 7.10659378 14.69921264 5.91320801 12.42205811 C5.17206676 11.01014927 4.427641 9.59995851 3.67956543 8.19171143 C2.24830412 5.48305753 0.97085207 2.91255622 0 0 Z " fill="#031437" transform="translate(254,255)"/>
<path d="M0 0 C15.51 0 31.02 0 47 0 C47 4.95 47 9.9 47 15 C37.1 15 27.2 15 17 15 C17 21.27 17 27.54 17 34 C23.93 34 30.86 34 38 34 C38 39.28 38 44.56 38 50 C31.07 50 24.14 50 17 50 C17 56.27 17 62.54 17 69 C26.9 69 36.8 69 47 69 C47 73.95 47 78.9 47 84 C31.49 84 15.98 84 0 84 C0 56.28 0 28.56 0 0 Z " fill="#041538" transform="translate(201,255)"/>
<path d="M0 0 C18.81 0 37.62 0 57 0 C57 4.95 57 9.9 57 15 C50.4 15 43.8 15 37 15 C37 37.77 37 60.54 37 84 C31.39 84 25.78 84 20 84 C20 61.23 20 38.46 20 15 C13.4 15 6.8 15 0 15 C0 10.05 0 5.1 0 0 Z " fill="#011235" transform="translate(319,255)"/>
<path d="M0 0 C18.81 0 37.62 0 57 0 C57 4.95 57 9.9 57 15 C50.4 15 43.8 15 37 15 C37 37.77 37 60.54 37 84 C31.39 84 25.78 84 20 84 C20 61.23 20 38.46 20 15 C13.4 15 6.8 15 0 15 C0 10.05 0 5.1 0 0 Z " fill="#011235" transform="translate(136,255)"/>
<path d="M0 0 C1.93062538 -0.01268921 1.93062538 -0.01268921 3.9002533 -0.02563477 C5.32449467 -0.01980199 6.7487348 -0.01365749 8.17297363 -0.00723267 C9.67444745 -0.01129822 11.17591827 -0.01664001 12.67738342 -0.02316284 C16.75380597 -0.03684428 20.83000084 -0.03153444 24.90642738 -0.02202559 C29.17134848 -0.01443326 33.43625002 -0.02147341 37.70117188 -0.02618408 C44.86352032 -0.03164288 52.02577599 -0.02444677 59.18811035 -0.01016235 C67.47017271 0.00616443 75.75201351 0.000876 84.03407049 -0.01564157 C91.14330362 -0.02925291 98.25247003 -0.03117783 105.36171198 -0.02332556 C109.60844206 -0.0186471 113.85506798 -0.01802893 118.10179138 -0.02793503 C122.09421606 -0.03659732 126.08635492 -0.03059646 130.0787487 -0.01325226 C131.54449425 -0.00928345 133.01026383 -0.01042823 134.47599983 -0.01704025 C136.47560903 -0.02522936 138.47527074 -0.01314244 140.47485352 0 C142.15394176 0.00169662 142.15394176 0.00169662 143.86695099 0.00342751 C147.03678792 0.42032275 148.40991203 1.24500761 150.73742676 3.38095093 C150.42492676 6.75595093 150.42492676 6.75595093 149.73742676 10.38095093 C146.21349902 12.73023609 144.76813489 12.63589185 140.59510803 12.64837646 C139.30939911 12.65690643 138.02369019 12.6654364 136.69902039 12.67422485 C135.27114856 12.67352581 133.84327683 12.67260273 132.41540527 12.67147827 C130.91407944 12.67746153 129.41275668 12.6842666 127.91143799 12.6918335 C123.83088228 12.70952031 119.75041041 12.71418997 115.66982007 12.71546507 C112.26513783 12.7173629 108.86047518 12.724719 105.45580047 12.73180926 C97.42458445 12.74810061 89.39341327 12.75297749 81.36218262 12.7515564 C73.07272363 12.75035439 64.78352477 12.7714661 56.49413162 12.80304372 C49.38067922 12.82917779 42.26731193 12.83992492 35.15381187 12.83864558 C30.90365741 12.83813514 26.65373412 12.84386309 22.4036274 12.86500168 C18.40707197 12.88433625 14.41096939 12.88454172 10.41439819 12.86996841 C8.9470294 12.86787331 7.47963261 12.87262292 6.01231194 12.88468933 C4.01050783 12.90008583 2.00855002 12.88846012 0.00672913 12.87542725 C-1.67430735 12.87706155 -1.67430735 12.87706155 -3.38930416 12.87872887 C-6.92241099 12.2666377 -8.10022132 11.1893801 -10.26257324 8.38095093 C-10.76257324 5.81845093 -10.76257324 5.81845093 -10.26257324 3.38095093 C-7.02204126 0.16275878 -4.46280729 0.00450939 0 0 Z " fill="#B9CCED" transform="translate(121.2625732421875,98.61904907226563)"/>
<path d="M0 0 C1.06838608 -0.00845947 2.13677216 -0.01691895 3.23753357 -0.02563477 C4.4095784 -0.01956207 5.58162323 -0.01348938 6.78918457 -0.00723267 C8.02350723 -0.01248962 9.2578299 -0.01774658 10.52955627 -0.02316284 C13.9160288 -0.03411597 17.30195258 -0.03153244 20.68839455 -0.02202559 C24.23042164 -0.01443611 27.77242512 -0.02147261 31.31445312 -0.02618408 C37.26294165 -0.03164373 43.21131847 -0.02444461 49.15979004 -0.01016235 C56.03938292 0.00616465 62.91870908 0.00087629 69.7982955 -0.01564157 C75.70241121 -0.02925055 81.60644658 -0.03117901 87.51057291 -0.02332556 C91.03797179 -0.01864577 94.56524526 -0.01803248 98.09263611 -0.02793503 C102.02414335 -0.03820089 105.95535125 -0.02397681 109.88684082 -0.00723267 C111.05888565 -0.01330536 112.23093048 -0.01937805 113.43849182 -0.02563477 C115.04107094 -0.01294556 115.04107094 -0.01294556 116.67602539 0 C118.07084515 0.00169662 118.07084515 0.00169662 119.49384308 0.00342751 C121.8380127 0.38095093 121.8380127 0.38095093 123.64110565 1.71335411 C125.47329768 4.26606496 125.16201571 6.33532262 124.8380127 9.38095093 C122.27355188 11.94541175 121.32035448 11.63385306 117.75831604 11.64164734 C116.14517769 11.65227455 116.14517769 11.65227455 114.49945068 11.66311646 C113.31445984 11.66063904 112.12946899 11.65816162 110.90856934 11.65560913 C109.66463913 11.66072006 108.42070892 11.66583099 107.13908386 11.6710968 C103.7216747 11.68263988 100.30450756 11.68506243 96.88709569 11.6825335 C94.03659751 11.6814656 91.18612183 11.68634255 88.33562845 11.69113892 C81.61187816 11.70224376 74.88818374 11.70266612 68.16442871 11.69662476 C61.22295263 11.69058375 54.28167918 11.70289683 47.34023768 11.72419482 C41.3851972 11.74179595 35.43022131 11.74781453 29.47515577 11.74455708 C25.91643133 11.7427416 22.35785141 11.74540653 18.79915047 11.75927162 C14.83163589 11.77415031 10.86438044 11.76489284 6.89685059 11.75326538 C5.71388397 11.76090912 4.53091736 11.76855286 3.31210327 11.77642822 C2.23385788 11.76941391 1.15561249 11.7623996 0.04469299 11.75517273 C-0.89386001 11.75534047 -1.83241301 11.75550821 -2.79940701 11.75568104 C-5.60509417 11.31066951 -6.49803059 10.64886824 -8.1619873 8.38095093 C-8.58543045 5.5579966 -8.67571024 4.0793294 -6.96117401 1.74851036 C-4.54283597 -0.08966518 -3.02258501 0.00367658 0 0 Z " fill="#C2D5F6" transform="translate(119.1619873046875,78.61904907226563)"/>
<path d="M0 0 C0.93035568 -0.00525696 1.86071136 -0.01051392 2.81925964 -0.01593018 C5.90059097 -0.02915464 8.98140737 -0.02038263 12.06274414 -0.01025391 C14.20121866 -0.01227411 16.33969251 -0.01518509 18.47816467 -0.01895142 C22.96304881 -0.02337823 27.44775385 -0.01693276 31.93261719 -0.00292969 C37.68414812 0.01415195 43.43525879 0.00432957 49.18677425 -0.01364708 C53.60395986 -0.024484 58.02104573 -0.02103879 62.43823433 -0.0132637 C64.55894584 -0.01126091 66.67966638 -0.01372372 68.80036736 -0.02070236 C71.76429115 -0.02831405 74.72753327 -0.01671583 77.69140625 0 C79.00927124 -0.00910904 79.00927124 -0.00910904 80.35375977 -0.0184021 C86.32882934 0.04408345 86.32882934 0.04408345 89.48658752 1.91244507 C90.19137489 2.64293564 90.19137489 2.64293564 90.91040039 3.38818359 C90.65478716 5.73130489 90.31769267 8.06661762 89.91040039 10.38818359 C86.49513708 12.09581525 82.58504014 11.54462279 78.82666016 11.54931641 C77.88509064 11.55428131 76.94352112 11.55924622 75.97341919 11.56436157 C72.84954099 11.5790021 69.72571355 11.58578779 66.60180664 11.59130859 C64.43708799 11.59705779 62.27236936 11.60281555 60.10765076 11.60858154 C55.56557985 11.61909644 51.02352668 11.62493614 46.48144531 11.62841797 C40.6524811 11.63390855 34.8237498 11.65794666 28.99485874 11.68638992 C24.52283536 11.70498274 20.05086851 11.71022008 15.57880974 11.71175385 C13.42934837 11.7147877 11.27988816 11.72284072 9.13046455 11.73593903 C6.12797257 11.75293194 3.12605528 11.75113599 0.12353516 11.74462891 C-0.76955856 11.75384369 -1.66265228 11.76305847 -2.58280945 11.77255249 C-3.80891937 11.76419876 -3.80891937 11.76419876 -5.05979919 11.75567627 C-6.1247217 11.75787611 -6.1247217 11.75787611 -7.2111578 11.76012039 C-9.67265641 11.2727367 -10.5652028 10.34620375 -12.08959961 8.38818359 C-12.46459961 5.88818359 -12.46459961 5.88818359 -12.08959961 3.38818359 C-8.87498883 -0.72831069 -4.83903089 -0.03337034 0 0 Z " fill="#C1D4F5" transform="translate(123.089599609375,56.61181640625)"/>
<path d="M0 0 C1.22695084 -0.00426498 2.45390167 -0.00852997 3.71803284 -0.01292419 C5.09022525 -0.01257463 6.46241764 -0.01211307 7.83460999 -0.0115509 C9.2699187 -0.01454081 10.70522661 -0.01794294 12.14053345 -0.02172852 C16.04957904 -0.03058993 19.95860276 -0.03290752 23.86765742 -0.0335443 C27.12578679 -0.03449163 30.38391101 -0.03816789 33.6420384 -0.0417164 C41.32602323 -0.04986909 49.00999633 -0.05229989 56.69398499 -0.05158997 C64.63231474 -0.05098895 72.57057658 -0.06154363 80.50888914 -0.07733363 C87.31398303 -0.09038946 94.11905468 -0.09577469 100.92416102 -0.09513456 C104.99312477 -0.09487899 109.06202821 -0.09776224 113.13097954 -0.10831261 C116.95667326 -0.11796077 120.78224862 -0.1180955 124.6079464 -0.11079597 C126.01487144 -0.10974602 127.42180372 -0.11213718 128.82871628 -0.11815643 C130.74378767 -0.12582128 132.65889902 -0.12005731 134.57397461 -0.11352539 C135.64748641 -0.11407016 136.72099821 -0.11461493 137.82704067 -0.1151762 C140.35047913 0.13371277 140.35047913 0.13371277 142.35047913 2.13371277 C141.81476484 5.66942705 141.81476484 5.66942705 140.35047913 7.13371277 C138.46948338 7.23463082 136.58465696 7.26448389 134.70095825 7.26742554 C133.47400742 7.27169052 132.24705658 7.27595551 130.98292542 7.28034973 C129.610733 7.28000017 128.23854061 7.27953861 126.86634827 7.27897644 C125.43103955 7.28196634 123.99573164 7.28536848 122.5604248 7.28915405 C118.65137922 7.29801547 114.74235549 7.30033306 110.83330083 7.30096984 C107.57517146 7.30191717 104.31704724 7.30559342 101.05891985 7.30914193 C93.37493502 7.31729463 85.69096192 7.31972543 78.00697327 7.3190155 C70.06864352 7.31841449 62.13038167 7.32896916 54.19206911 7.34475917 C47.38697522 7.35781499 40.58190357 7.36320023 33.77679724 7.36256009 C29.70783349 7.36230453 25.63893004 7.36518778 21.56997871 7.37573814 C17.74428499 7.38538631 13.91870963 7.38552104 10.09301186 7.37822151 C8.68608681 7.37717156 7.27915453 7.37956271 5.87224197 7.38558197 C3.95717058 7.39324682 2.04205924 7.38748285 0.12698364 7.38095093 C-1.48328406 7.38176808 -1.48328406 7.38176808 -3.12608242 7.38260174 C-5.64952087 7.13371277 -5.64952087 7.13371277 -7.64952087 5.13371277 C-6.82984064 -0.27617678 -5.15646405 0.00805251 0 0 Z " fill="#C4D7F8" transform="translate(188.64952087402344,480.8662872314453)"/>
<path d="M0 0 C1.0095575 -0.00281982 2.01911499 -0.00563965 3.05926514 -0.00854492 C4.72689911 -0.00550858 4.72689911 -0.00550858 6.42822266 -0.00241089 C8.17948456 -0.00503937 8.17948456 -0.00503937 9.96612549 -0.00772095 C13.17266455 -0.01137508 16.37916252 -0.01050859 19.58570099 -0.00734186 C22.93734269 -0.00481466 26.28898329 -0.00715681 29.640625 -0.00872803 C35.26969904 -0.01054866 40.89875998 -0.00814618 46.52783203 -0.00338745 C53.04095955 0.00205497 59.55405578 0.00029224 66.06718254 -0.00521386 C71.6536225 -0.00974799 77.24005302 -0.01039406 82.82649422 -0.00777519 C86.16548223 -0.00621407 89.50445858 -0.00601414 92.84344482 -0.00931168 C96.56443424 -0.01183948 100.2853628 -0.00799574 104.00634766 -0.00241089 C105.11810364 -0.00443512 106.22985962 -0.00645935 107.37530518 -0.00854492 C108.38486267 -0.0057251 109.39442017 -0.00290527 110.43457031 0 C111.75529037 0.00056554 111.75529037 0.00056554 113.10269165 0.0011425 C115.21728516 0.12698364 115.21728516 0.12698364 117.21728516 1.12698364 C117.34228516 3.50198364 117.34228516 3.50198364 117.21728516 6.12698364 C114.70545244 8.63881636 113.90652382 8.37797751 110.43457031 8.38095093 C108.92023407 8.3894104 108.92023407 8.3894104 107.37530518 8.39804077 C106.26354919 8.39399231 105.15179321 8.38994385 104.00634766 8.38577271 C102.83883972 8.38927734 101.67133179 8.39278198 100.46844482 8.39639282 C97.26186408 8.40370118 94.05544769 8.40196819 90.84886932 8.39563465 C87.49722654 8.39058024 84.14558814 8.39526455 80.79394531 8.39840698 C75.16485617 8.40204827 69.53581947 8.3972433 63.90673828 8.38772583 C57.3935787 8.37684094 50.88054432 8.3803664 44.36738777 8.39137864 C38.78093962 8.40044692 33.19452922 8.40173906 27.6080761 8.3965013 C24.26907465 8.39337906 20.93011984 8.39297919 17.59112549 8.39957428 C13.87007066 8.40462998 10.14925926 8.39694256 6.42822266 8.38577271 C5.31646667 8.38982117 4.20471069 8.39386963 3.05926514 8.39804077 C2.04970764 8.39240112 1.04015015 8.38676147 0 8.38095093 C-0.88048004 8.38019688 -1.76096008 8.37944283 -2.66812134 8.37866592 C-4.78271484 8.12698364 -4.78271484 8.12698364 -6.78271484 6.12698364 C-6.90771484 3.50198364 -6.90771484 3.50198364 -6.78271484 1.12698364 C-4.33014096 -0.0993033 -2.74256703 0.00117438 0 0 Z " fill="#BBCDEF" transform="translate(200.78271484375,465.8730163574219)"/>
</svg>
